PathFileType	4	(X/Y/Z)	C:\Users\86182\Documents\cortex\Trimmed_M1_L10.trc
DataRate	CameraRate	NumFrames	NumMarkers	Units	OrigDataRate	OrigDataStartFrame	OrigNumFrames
100.00	100.00	       70	2	mm	100.00	181	       901
Frame#	Time	gripper			box			
		X1	Y1	Z1	X2	Y2	Z2	

181	1.800	200.06720	194.97417	222.13963	202.06949	194.07753	85.88474	
182	1.810	199.76662	194.98874	222.64066	202.46304	194.10609	86.38795	
183	1.820	199.71451	195.16795	223.20920	202.31363	194.20758	86.97002	
184	1.830	199.75908	195.13550	223.59732	202.08591	194.20203	87.29328	
185	1.840	199.99199	195.06992	223.87024	202.13425	194.20389	87.67594	
186	1.850	200.06641	195.13092	224.41655	202.13940	194.20399	88.21924	
187	1.860	199.86967	195.16554	224.96654	202.47166	194.28519	88.48141	
188	1.870	199.75934	195.18474	225.38823	202.18546	194.14836	88.94059	
189	1.880	199.85004	195.20036	225.64371	202.18872	194.24286	89.51792	
190	1.890	199.96858	195.22955	226.11668	202.20963	194.27843	89.89895	
191	1.900	199.95461	195.08252	226.61322	202.24471	194.16042	90.17408	
192	1.910	199.84814	195.19568	226.95686	202.28365	194.28395	90.42216	
193	1.920	199.74707	195.23271	227.35370	201.93977	194.19467	90.97309	
194	1.930	199.96657	195.21474	227.78639	202.19518	194.17053	91.53857	
195	1.940	199.93265	195.18417	228.11072	202.04498	194.23471	92.06487	
196	1.950	199.76039	195.14548	228.56894	202.31619	194.26797	92.25972	
197	1.960	199.90430	195.16042	229.10899	202.24449	194.30731	92.80444	
198	1.970	199.97098	195.33295	229.64206	202.03490	194.25452	93.31876	
199	1.980	199.88470	195.30727	229.93831	201.99008	194.20216	93.68715	
200	1.990	199.75374	195.28244	230.43114	202.08559	194.40613	94.11132	
201	2.000	199.67921	195.22763	230.80086	202.41386	194.31134	94.51554	
202	2.010	199.96678	195.28146	231.33179	202.17450	194.25328	95.23219	
203	2.020	199.84196	195.27827	231.68913	201.98624	194.24167	95.45137	
204	2.030	199.86603	195.32953	232.22974	201.91940	194.37431	95.69972	
205	2.040	199.68021	195.26260	232.52403	202.02576	194.41412	96.15954	
206	2.050	199.67641	195.31493	232.89496	202.22697	194.29120	96.72847	
207	2.060	199.68890	195.33597	233.17241	202.07336	194.22395	97.18256	
208	2.070	199.96259	195.34528	233.89726	201.96027	194.36783	97.53191	
209	2.080	199.65430	195.28157	234.28964	201.97282	194.36249	97.74348	
210	2.090	199.59346	195.23911	234.57904	201.95877	194.29007	98.27339	
211	2.100	199.64333	195.35379	234.88976	202.06956	194.40421	98.57446	
212	2.110	199.72804	195.39601	235.38217	201.78738	194.26299	99.18688	
213	2.120	199.73413	195.32124	235.94876	201.86057	194.40575	99.53526	
214	2.130	199.82854	195.33301	236.24840	202.00656	194.33731	100.13536	
215	2.140	199.96542	195.43787	236.82199	202.15079	194.39641	100.35054	
216	2.150	199.80014	195.30208	237.16081	202.03221	194.43620	100.63457	
217	2.160	199.70825	195.37161	237.54045	201.95886	194.38911	101.21634	
218	2.170	199.95251	195.50800	238.16238	202.09204	194.44049	101.95703	
219	2.180	199.92642	195.37952	238.76297	202.10867	194.49632	102.26825	
220	2.190	199.92114	195.38098	238.96727	202.28014	194.47490	102.53794	
221	2.200	199.91118	195.52792	239.30116	202.31654	194.50024	103.14136	
222	2.210	199.81021	195.49892	239.97711	202.03891	194.49690	103.61637	
223	2.220	199.68854	195.53122	240.44080	202.02020	194.57747	104.10953	
224	2.230	199.83488	195.46849	240.81110	202.15373	194.62950	104.40344	
225	2.240	200.06084	195.56520	241.16905	202.25381	194.50157	104.82533	
226	2.250	199.84331	195.43610	241.69475	202.01712	194.58905	105.34081	
227	2.260	199.71283	195.42393	241.96867	201.95850	194.50656	105.65292	
228	2.270	199.46436	195.43132	242.32153	201.86978	194.47049	105.92606	
229	2.280	199.49651	195.30287	242.87225	202.00607	194.51955	106.51499	
230	2.290	199.55583	195.34709	243.42613	201.84703	194.59276	106.95733	
231	2.300	199.53929	195.34270	243.71045	201.86003	194.65085	107.38441	
232	2.310	199.38199	195.18520	244.08270	201.88800	194.49484	107.80083	
233	2.320	199.51161	195.28021	244.68150	201.81259	194.41261	108.10835	
234	2.330	199.50145	195.28296	244.98441	201.96667	194.46150	108.49463	
235	2.340	199.45450	195.34546	245.41319	201.95297	194.67999	109.06243	
236	2.350	199.60698	195.25450	245.87981	201.91199	194.59546	109.51945	
237	2.360	199.65746	195.29366	246.36597	201.99838	194.52855	110.10127	
238	2.370	199.61504	195.33170	246.75778	201.92599	194.50824	110.40631	
239	2.380	199.27065	195.19313	247.26044	202.22472	194.72948	110.63110	
240	2.390	199.62218	195.29213	247.81004	202.10918	194.68042	111.26180	
241	2.400	199.66470	195.22745	248.05545	201.85332	194.52559	111.94048	
242	2.410	199.52521	195.15161	248.51183	201.72189	194.45471	112.23531	
243	2.420	199.46597	195.08846	248.90318	201.80508	194.41582	112.54868	
244	2.430	199.42384	195.26079	249.42384	201.75189	194.39655	112.84062	
245	2.440	199.53049	195.32532	249.77164	201.80988	194.51758	113.30659	
246	2.450	199.38600	195.15001	250.12126	201.63499	194.40927	113.93079	
247	2.460	199.42847	195.14787	250.56174	201.59317	194.34746	114.23315	
248	2.470	199.40033	195.30156	251.01144	201.48341	194.33530	114.56645	
249	2.480	199.49387	195.28743	251.36418	201.47134	194.30244	115.03664	
250	2.490	199.35370	195.21724	251.76439	201.34665	194.26776	115.51632	
